<mxfile host="app.diagrams.net" modified="2023-08-19T05:01:38.643Z" agent="Mozilla/5.0 (X11; Linux x86_64) AppleWebKit/537.36 (KHTML, like Gecko) Chrome/115.0.0.0 Safari/537.36" version="21.6.8" etag="pppfWrlPT5rKYZ7mr3Pm" type="github">
  <diagram name="Page-1" id="T3zN5r0axWzBBcXxlttl">
    <mxGraphModel>
      <root>
        <mxCell id="0" />
        <mxCell id="1" parent="0" />
      </root>
    </mxGraphModel>
  </diagram>
</mxfile>
